<?xml version="1.0" standalone="no"?>
<!DOCTYPE svg PUBLIC "-//W3C//DTD SVG 20010904//EN"
 "http://www.w3.org/TR/2001/REC-SVG-20010904/DTD/svg10.dtd">
<svg version="1.0" xmlns="http://www.w3.org/2000/svg"
 width="90.000000pt" height="90.000000pt" viewBox="0 0 90.000000 90.000000"
 preserveAspectRatio="xMidYMid meet">
<metadata>
Created by potrace 1.14, written by Peter Selinger 2001-2017
</metadata>
<g transform="translate(0.000000,90.000000) scale(0.100000,-0.100000)"
fill="#000000" stroke="none">
<path d="M360 758 c-19 -5 -41 -14 -47 -20 -7 -6 -19 -8 -28 -4 -8 3 -14 2
-13 -2 2 -4 -20 -30 -48 -58 -28 -27 -57 -67 -63 -87 -7 -20 -16 -37 -20 -37
-5 0 -8 -42 -7 -92 2 -109 22 -164 83 -224 42 -42 83 -76 83 -70 0 2 17 -4 38
-14 28 -14 55 -18 112 -16 41 2 82 6 90 8 8 3 27 8 43 13 15 4 27 11 27 16 0
5 5 9 11 9 14 0 99 84 99 97 0 6 7 16 15 23 8 6 14 15 13 18 -1 4 4 25 10 47
28 100 12 187 -50 273 -79 108 -220 157 -348 120z m245 -188 c3 -5 1 -10 -5
-10 -6 0 -9 -4 -5 -9 3 -5 0 -15 -7 -23 -7 -7 -19 -24 -26 -38 -19 -37 -41
-64 -47 -59 -3 3 11 32 30 64 20 32 34 60 32 62 -6 6 -53 -59 -61 -84 -4 -13
-11 -23 -16 -23 -17 0 16 64 49 97 36 35 46 39 56 23z m-126 -84 c8 -9 8 -21
1 -40 -6 -17 -6 -26 0 -26 18 0 10 -19 -15 -36 -14 -9 -36 -16 -50 -16 -14 0
-23 -4 -20 -8 6 -9 -73 -33 -85 -25 -15 9 -12 19 16 51 26 29 26 29 19 4 -6
-24 -6 -25 10 -5 9 11 21 19 26 17 6 -1 8 2 4 8 -6 9 62 89 76 90 4 0 12 -6
18 -14z m40 -102 c-13 -16 -66 -41 -104 -49 -22 -4 -17 0 20 19 28 14 56 25
63 25 7 1 11 5 8 9 -3 5 1 9 9 9 11 0 12 -4 4 -13z m-142 -60 c-3 -3 -12 -4
-19 -1 -8 3 -5 6 6 6 11 1 17 -2 13 -5z"/>
<path d="M315 359 c-4 -6 -5 -13 -2 -16 7 -7 27 6 27 18 0 12 -17 12 -25 -2z"/>
</g>
</svg>
